<svg width="16" height="16" viewBox="0 0 16 16" fill="none" xmlns="http://www.w3.org/2000/svg">
<g clip-path="url(#clip0_2_637)">
<path d="M1.99475 10.8947C2.09277 11.142 2.1146 11.4129 2.05741 11.6727L1.34741 13.866C1.32454 13.9773 1.33045 14.0925 1.3646 14.2008C1.39874 14.3091 1.45999 14.4069 1.54252 14.4849C1.62506 14.5629 1.72615 14.6185 1.83621 14.6465C1.94627 14.6744 2.06165 14.6738 2.17141 14.6447L4.44675 13.9794C4.69189 13.9307 4.94576 13.952 5.17941 14.0407C6.603 14.7055 8.21566 14.8462 9.73285 14.4378C11.25 14.0295 12.5743 13.0985 13.4719 11.8089C14.3695 10.5194 14.7828 8.95429 14.6389 7.38972C14.4951 5.82515 13.8032 4.36167 12.6855 3.25748C11.5677 2.1533 10.0959 1.47938 8.52967 1.35462C6.96345 1.22986 5.4035 1.66227 4.12504 2.57558C2.84658 3.48888 1.93177 4.82438 1.54201 6.34644C1.15225 7.86851 1.31259 9.47932 1.99475 10.8947Z" stroke="white" stroke-width="1.33333" stroke-linecap="round" stroke-linejoin="round"/>
</g>
<defs>
<clipPath id="clip0_2_637">
<rect width="16" height="16" fill="white"/>
</clipPath>
</defs>
</svg>
