<svg width="16" height="16" viewBox="0 0 16 16" fill="none" xmlns="http://www.w3.org/2000/svg">
<g clip-path="url(#clip0_27_1420)">
<path d="M1.99511 10.8947C2.09314 11.142 2.11496 11.4129 2.05778 11.6727L1.34778 13.866C1.3249 13.9773 1.33082 14.0925 1.36496 14.2008C1.39911 14.3091 1.46035 14.4069 1.54289 14.4849C1.62543 14.5629 1.72652 14.6185 1.83658 14.6465C1.94664 14.6744 2.06202 14.6738 2.17178 14.6447L4.44711 13.9794C4.69226 13.9307 4.94613 13.952 5.17978 14.0407C6.60337 14.7055 8.21602 14.8462 9.73321 14.4378C11.2504 14.0295 12.5746 13.0985 13.4722 11.8089C14.3699 10.5194 14.7832 8.95429 14.6393 7.38972C14.4954 5.82515 13.8036 4.36167 12.6858 3.25748C11.5681 2.1533 10.0962 1.47938 8.53003 1.35462C6.96382 1.22986 5.40387 1.66227 4.12541 2.57558C2.84694 3.48888 1.93213 4.82438 1.54237 6.34644C1.15262 7.86851 1.31296 9.47932 1.99511 10.8947Z" stroke="white" stroke-width="1.33333" stroke-linecap="round" stroke-linejoin="round"/>
</g>
<defs>
<clipPath id="clip0_27_1420">
<rect width="16" height="16" fill="white"/>
</clipPath>
</defs>
</svg>
