<svg width="20" height="20" viewBox="0 0 20 20" fill="none" xmlns="http://www.w3.org/2000/svg">
<path d="M16.6663 8.33335C16.6663 12.4942 12.0505 16.8275 10.5005 18.1659C10.3561 18.2744 10.1803 18.3331 9.99967 18.3331C9.81901 18.3331 9.64324 18.2744 9.49884 18.1659C7.94884 16.8275 3.33301 12.4942 3.33301 8.33335C3.33301 6.56524 4.03539 4.86955 5.28563 3.61931C6.53587 2.36907 8.23156 1.66669 9.99967 1.66669C11.7678 1.66669 13.4635 2.36907 14.7137 3.61931C15.964 4.86955 16.6663 6.56524 16.6663 8.33335Z" stroke="#6B7280" stroke-width="1.66667" stroke-linecap="round" stroke-linejoin="round"/>
<path d="M10 10.8333C11.3807 10.8333 12.5 9.71402 12.5 8.33331C12.5 6.9526 11.3807 5.83331 10 5.83331C8.61929 5.83331 7.5 6.9526 7.5 8.33331C7.5 9.71402 8.61929 10.8333 10 10.8333Z" stroke="#6B7280" stroke-width="1.66667" stroke-linecap="round" stroke-linejoin="round"/>
</svg>
