<svg width="16" height="16" viewBox="0 0 16 16" fill="none" xmlns="http://www.w3.org/2000/svg">
<path d="M7.68323 1.52985C7.71245 1.47082 7.75758 1.42114 7.81353 1.3864C7.86949 1.35166 7.93404 1.33325 7.9999 1.33325C8.06576 1.33325 8.13031 1.35166 8.18626 1.3864C8.24222 1.42114 8.28735 1.47082 8.31656 1.52985L9.85656 4.64918C9.95802 4.85449 10.1078 5.03212 10.293 5.16682C10.4782 5.30151 10.6933 5.38926 10.9199 5.42251L14.3639 5.92651C14.4292 5.93597 14.4905 5.9635 14.5409 6.00598C14.5913 6.04847 14.6288 6.10421 14.6492 6.16692C14.6696 6.22962 14.6721 6.29679 14.6563 6.36081C14.6405 6.42483 14.6071 6.48315 14.5599 6.52918L12.0692 8.95451C11.905 9.11458 11.7821 9.31217 11.7111 9.53027C11.6402 9.74837 11.6233 9.98044 11.6619 10.2065L12.2499 13.6332C12.2614 13.6984 12.2544 13.7656 12.2296 13.827C12.2048 13.8884 12.1632 13.9416 12.1096 13.9805C12.056 14.0194 11.9925 14.0425 11.9265 14.0471C11.8604 14.0517 11.7944 14.0376 11.7359 14.0065L8.65723 12.3878C8.45438 12.2813 8.22868 12.2257 7.99956 12.2257C7.77044 12.2257 7.54475 12.2813 7.3419 12.3878L4.2639 14.0065C4.20545 14.0375 4.1395 14.0514 4.07353 14.0467C4.00757 14.042 3.94424 14.0189 3.89076 13.98C3.83728 13.9411 3.79579 13.888 3.771 13.8267C3.74622 13.7654 3.73914 13.6983 3.75056 13.6332L4.3379 10.2072C4.37669 9.981 4.35989 9.74878 4.28892 9.53055C4.21796 9.31231 4.09497 9.11462 3.93056 8.95451L1.4399 6.52985C1.39229 6.48387 1.35856 6.42545 1.34254 6.36123C1.32652 6.29702 1.32886 6.22959 1.34928 6.16664C1.36971 6.10369 1.40741 6.04774 1.45808 6.00517C1.50876 5.9626 1.57037 5.93511 1.6359 5.92585L5.07923 5.42251C5.30607 5.38951 5.52149 5.30189 5.70695 5.16717C5.89242 5.03246 6.04237 4.8547 6.1439 4.64918L7.68323 1.52985Z" fill="#FDC700" stroke="#FDC700" stroke-width="1.33333" stroke-linecap="round" stroke-linejoin="round"/>
</svg>
