<svg width="32" height="32" viewBox="0 0 32 32" fill="none" xmlns="http://www.w3.org/2000/svg">
<path d="M28.9735 24L18.3068 5.33331C18.0742 4.92291 17.737 4.58156 17.3294 4.34407C16.9218 4.10657 16.4585 3.98145 15.9868 3.98145C15.5151 3.98145 15.0518 4.10657 14.6443 4.34407C14.2367 4.58156 13.8994 4.92291 13.6668 5.33331L3.00015 24C2.76506 24.4071 2.64179 24.8692 2.64283 25.3393C2.64387 25.8095 2.76919 26.271 3.00608 26.6771C3.24297 27.0832 3.58301 27.4194 3.99174 27.6517C4.40047 27.8841 4.86336 28.0042 5.33348 28H26.6668C27.1347 27.9995 27.5942 27.8759 27.9992 27.6417C28.4042 27.4074 28.7404 27.0708 28.9742 26.6655C29.2079 26.2602 29.3309 25.8005 29.3308 25.3326C29.3306 24.8648 29.2074 24.4052 28.9735 24Z" stroke="#F59E0B" stroke-width="2.66667" stroke-linecap="round" stroke-linejoin="round"/>
<path d="M16 12V17.3333" stroke="#F59E0B" stroke-width="2.66667" stroke-linecap="round" stroke-linejoin="round"/>
<path d="M16 22.6665H16.0133" stroke="#F59E0B" stroke-width="2.66667" stroke-linecap="round" stroke-linejoin="round"/>
</svg>
