<svg width="16" height="16" viewBox="0 0 16 16" fill="none" xmlns="http://www.w3.org/2000/svg">
<g clip-path="url(#clip0_149_637)">
<path d="M1.99475 10.8951C2.09277 11.1424 2.1146 11.4133 2.05741 11.6731L1.34741 13.8664C1.32454 13.9777 1.33045 14.0929 1.3646 14.2012C1.39874 14.3095 1.45999 14.4073 1.54252 14.4853C1.62506 14.5633 1.72615 14.6189 1.83621 14.6469C1.94627 14.6749 2.06165 14.6742 2.17141 14.6451L4.44675 13.9798C4.69189 13.9312 4.94576 13.9524 5.17941 14.0411C6.603 14.7059 8.21566 14.8466 9.73285 14.4383C11.25 14.0299 12.5743 13.0989 13.4719 11.8094C14.3695 10.5198 14.7828 8.95472 14.6389 7.39015C14.4951 5.82557 13.8032 4.36209 12.6855 3.25791C11.5677 2.15373 10.0959 1.47981 8.52967 1.35504C6.96345 1.23028 5.4035 1.6627 4.12504 2.57601C2.84658 3.48931 1.93177 4.82481 1.54201 6.34687C1.15225 7.86894 1.31259 9.47975 1.99475 10.8951Z" stroke="white" stroke-width="1.33333" stroke-linecap="round" stroke-linejoin="round"/>
</g>
<defs>
<clipPath id="clip0_149_637">
<rect width="16" height="16" fill="white"/>
</clipPath>
</defs>
</svg>
