<svg width="28" height="28" viewBox="0 0 28 28" fill="none" xmlns="http://www.w3.org/2000/svg">
<path d="M24.99 12.7424C25.1988 12.6503 25.3761 12.4989 25.4997 12.307C25.6234 12.1152 25.6881 11.8912 25.6857 11.663C25.6833 11.4347 25.6141 11.2121 25.4865 11.0229C25.3589 10.8336 25.1785 10.6859 24.9678 10.5981L14.9683 6.04342C14.6643 5.90476 14.3341 5.83301 14 5.83301C13.6659 5.83301 13.3356 5.90476 13.0317 6.04342L3.03333 10.5934C2.82562 10.6844 2.64893 10.8339 2.52485 11.0237C2.40078 11.2135 2.3347 11.4353 2.3347 11.6621C2.3347 11.8888 2.40078 12.1107 2.52485 12.3005C2.64893 12.4903 2.82562 12.6398 3.03333 12.7308L13.0317 17.2901C13.3356 17.4288 13.6659 17.5005 14 17.5005C14.3341 17.5005 14.6643 17.4288 14.9683 17.2901L24.99 12.7424Z" stroke="white" stroke-width="2.33333" stroke-linecap="round" stroke-linejoin="round"/>
<path d="M25.6667 11.667V18.667" stroke="white" stroke-width="2.33333" stroke-linecap="round" stroke-linejoin="round"/>
<path d="M7 14.583V18.6663C7 19.5946 7.7375 20.4848 9.05025 21.1412C10.363 21.7976 12.1435 22.1663 14 22.1663C15.8565 22.1663 17.637 21.7976 18.9497 21.1412C20.2625 20.4848 21 19.5946 21 18.6663V14.583" stroke="white" stroke-width="2.33333" stroke-linecap="round" stroke-linejoin="round"/>
</svg>
