<svg width="64" height="64" viewBox="0 0 64 64" fill="none" xmlns="http://www.w3.org/2000/svg">
<g opacity="0.5">
<path d="M41.2718 34.373L45.3118 57.109C45.3571 57.3768 45.3195 57.6519 45.2042 57.8977C45.0888 58.1435 44.9012 58.3482 44.6663 58.4845C44.4315 58.6208 44.1606 58.6821 43.89 58.6603C43.6193 58.6384 43.3618 58.5345 43.1518 58.3624L33.6052 51.197C33.1443 50.8527 32.5844 50.6667 32.0092 50.6667C31.4339 50.6667 30.874 50.8527 30.4132 51.197L20.8505 58.3597C20.6407 58.5315 20.3835 58.6353 20.1131 58.6572C19.8428 58.679 19.5723 58.6179 19.3376 58.482C19.1029 58.3461 18.9152 58.1419 18.7996 57.8966C18.684 57.6513 18.6459 57.3766 18.6905 57.109L22.7278 34.373" stroke="#6B7280" stroke-width="5.33333" stroke-linecap="round" stroke-linejoin="round"/>
<path d="M32 37.333C40.8366 37.333 48 30.1696 48 21.333C48 12.4965 40.8366 5.33301 32 5.33301C23.1634 5.33301 16 12.4965 16 21.333C16 30.1696 23.1634 37.333 32 37.333Z" stroke="#6B7280" stroke-width="5.33333" stroke-linecap="round" stroke-linejoin="round"/>
</g>
</svg>
