<svg width="32" height="32" viewBox="0 0 32 32" fill="none" xmlns="http://www.w3.org/2000/svg">
<path d="M12 12.0043C11.9993 11.7677 12.0616 11.5352 12.1804 11.3306C12.2993 11.126 12.4705 10.9567 12.6764 10.8401C12.8823 10.7235 13.1155 10.6638 13.3521 10.6671C13.5887 10.6705 13.8201 10.7367 14.0227 10.859L20.6853 14.855C20.8837 14.9732 21.0479 15.1409 21.162 15.3417C21.2761 15.5425 21.336 15.7694 21.336 16.0003C21.336 16.2313 21.2761 16.4582 21.162 16.659C21.0479 16.8598 20.8837 17.0275 20.6853 17.1457L14.0227 21.1417C13.82 21.2641 13.5885 21.3303 13.3517 21.3336C13.115 21.3369 12.8817 21.277 12.6758 21.1603C12.4698 21.0435 12.2987 20.8741 12.1799 20.6693C12.0612 20.4645 11.9991 20.2318 12 19.995V12.0043Z" stroke="#179AE3" stroke-width="2.66667" stroke-linecap="round" stroke-linejoin="round"/>
<path d="M15.9998 29.3337C23.3636 29.3337 29.3332 23.3641 29.3332 16.0003C29.3332 8.63653 23.3636 2.66699 15.9998 2.66699C8.63604 2.66699 2.6665 8.63653 2.6665 16.0003C2.6665 23.3641 8.63604 29.3337 15.9998 29.3337Z" stroke="#179AE3" stroke-width="2.66667" stroke-linecap="round" stroke-linejoin="round"/>
</svg>
